<svg xmlns="http://www.w3.org/2000/svg" width="370.244" height="331.152" viewBox="0 0 370.244 331.152"><defs><style>.a{fill:#d7ebf7;}.b{fill:#74c66d;}.c{fill:#fff;}.d{fill:#211715;}.e{fill:#febe69;}.f{fill:#3f88c9;}.g{fill:#645d5c;}</style></defs><path class="a" d="M28.029,50.147V45.929c12.85-8.2,60.962-38.389,70.6-43.938,0,18.489,0,68.7,0,87.617-11.977,9.361-63.065,46.53-70.6,51.8Z"/><path class="b" d="M47.823,127.133c-9.5,6.906-17.21,12.469-19.794,14.278V86.65c5.149-2.769,9.978-2.118,12.4,1.711,1.89,2.96,2.47,7.7,5.21,9.36,2.68,1.62,6.75-.09,10.22-.34,7.033-.49,11.764,5.815,11.6,15.42C60.763,117.707,53.924,122.7,47.823,127.133Z"/><path class="c" d="M169.869,49.176a4.355,4.355,0,0,0-4.432,4.4c0,13.223,0,46.613,0,60.484,5.819,2.389,28.958,13.144,54.368,24.944l41.543,21.236c21.54,11.25,43.61,22.94,49.22,25.88,9.328,4.894,48.48,23.363,57.464,28.905,0-15.973.088-52.914.1-71.488a15.7,15.7,0,0,0-8.427-13.115c-34.916-15.9-152.487-66.9-188.515-80.966A4.1,4.1,0,0,0,169.869,49.176Z"/><path class="c" d="M153.606,180.767c-20.544-8.163-40.93-14.932-53.449-15.6l.305-.239.822-.643c22.67-17.75,53.629-42.66,64.15-50.22,5.819,2.39,28.957,13.144,54.367,24.944l41.543,21.236c21.54,11.25,43.61,22.94,49.22,25.88,9.321,4.891,48.42,23.335,57.443,28.892,0,12.93.033,40.254.239,54.936a1.956,1.956,0,0,1-.541,1.388c-1.721,1.822-3.507,3.7-5.339,5.626-11.261,11.819-24.26,25.2-34.6,35.879-3.932,4.06-7.48,7.729-10.4,10.775,0,0-.159.165-.471.5-.271-11.662-2.382-33.092-2.846-35.8-2.378-13.847-6.409-21.934-16.488-31.721-6.37-6.185-68.162-41.506-78.54-46.552C210.015,205.666,181.664,191.916,153.606,180.767Z"/><path class="d" d="M30.029,50.147V45.929l-.991,1.727c8.886-5.671,17.821-11.267,26.753-16.864Q72.1,20.572,88.481,10.459c3.7-2.275,7.4-4.571,11.16-6.741L96.632,1.991q0,16.221,0,32.441,0,19.4,0,38.8V89.608l.585-1.415c-.164.129-.328.256-.492.384-.106.083-.55.425-.128.1q-.588.453-1.179.9-1.236.945-2.48,1.883-3.162,2.388-6.342,4.75-8.037,5.984-16.118,11.905Q53.943,120.26,37.328,132.286c-3.426,2.478-6.845,4.971-10.309,7.4l3.01,1.727V50.147c0-2.574-4-2.578-4,0v91.264a2.014,2.014,0,0,0,3.009,1.726c6.932-4.854,13.749-9.881,20.593-14.858q15.708-11.424,31.34-22.949,6.468-4.776,12.9-9.6,2.265-1.7,4.514-3.428c1.057-.814,2.175-1.4,2.24-2.884.051-1.167,0-2.347,0-3.515V45.466q0-20.085,0-40.171,0-1.651,0-3.3A2.019,2.019,0,0,0,97.622.264C88.874,5.306,80.349,10.762,71.776,16.1Q54.6,26.78,37.493,37.569q-3.557,2.242-7.108,4.493-1.329.843-2.655,1.687c-.862.549-1.617,1.05-1.7,2.18-.1,1.388,0,2.825,0,4.218C26.029,52.721,30.029,52.725,30.029,50.147Z"/><path class="d" d="M366,215.011q0,21.865.13,43.73.039,5.606.11,11.21c.034,2.572,4.034,2.579,4,0-.2-14.875-.214-29.753-.233-44.63q-.008-5.154-.007-10.31c0-2.574-4-2.578-4,0Z"/><path class="d" d="M260.334,161.968c16.828,8.79,33.523,17.855,50.424,26.5,12.743,6.52,25.726,12.57,38.535,18.959,5.944,2.966,12.032,5.83,17.7,9.308,2.2,1.35,4.212-2.109,2.019-3.454-4.857-2.979-10.044-5.465-15.13-8.021-7.222-3.628-14.485-7.173-21.749-10.717q-17.2-8.4-34.106-17.292-17.823-9.4-35.675-18.74c-2.279-1.19-4.3,2.26-2.019,3.454Z"/><path class="d" d="M317.988,264.688c11.593-10.616,22.86-21.586,34.324-32.34,2.436-2.284,4.876-4.565,7.357-6.8,1.918-1.726-.918-4.547-2.828-2.828-11.188,10.072-21.932,20.644-32.894,30.959q-4.373,4.113-8.788,8.179c-1.9,1.742.932,4.565,2.829,2.829Z"/><path class="d" d="M167.433,114.061q0-18.978,0-37.956,0-9.26,0-18.519c0-1.9-.733-5.508,1.6-6.3,1-.338,2.005.248,2.921.608q1.155.455,2.308.914c8.237,3.279,16.427,6.675,24.608,10.09q16.038,6.7,32.021,13.522,17.9,7.623,35.752,15.332Q284.466,99.44,302.26,107.2q15.717,6.853,31.405,13.774,11.649,5.145,23.26,10.376a15.325,15.325,0,0,1,6.38,4.613,14.545,14.545,0,0,1,2.39,4.717,15.924,15.924,0,0,1,.432,4.544q-.007,9.657-.027,19.314-.038,21.131-.07,42.26,0,3.855,0,7.71c0,2.574,4,2.578,4,0q0-20.1.056-40.2.02-10.761.036-21.523c0-2.954.016-5.908.01-8.862a17.235,17.235,0,0,0-3.747-10.473,18.082,18.082,0,0,0-7.218-5.454q-2.441-1.106-4.885-2.2-5.923-2.661-11.862-5.291-15.118-6.708-30.279-13.323-17.848-7.8-35.728-15.531-18.355-7.936-36.745-15.8-17.038-7.278-34.12-14.458c-8.878-3.724-17.766-7.427-26.7-11.026q-2.538-1.023-5.082-2.03a18.953,18.953,0,0,0-2.7-1,6.172,6.172,0,0,0-5.224,1.231c-2.675,2.146-2.41,5.337-2.41,8.414q0,4.262,0,8.523l0,41.036v7.524c0,2.574,4,2.578,4,0Z"/><path class="d" d="M102.7,165.7c18.191-14.245,36.166-28.77,54.449-42.9,3.07-2.372,6.146-4.742,9.3-7.009l-1.541.2a2.686,2.686,0,0,1,.442.183c-.441-.288-.014-.006.155.067q.638.275,1.274.552,1.575.689,3.144,1.394,4.262,1.911,8.5,3.863,12.1,5.541,24.165,11.16,8.1,3.759,16.205,7.523a2.057,2.057,0,0,0,2.736-.717,2.016,2.016,0,0,0-.717-2.736q-16.651-7.734-33.314-15.441c-6.681-3.08-13.344-6.224-20.113-9.109a5.428,5.428,0,0,0-1.95-.668,4.019,4.019,0,0,0-2.209,1.145q-1.7,1.251-3.388,2.531-4.578,3.468-9.1,7.012-11.524,8.979-22.954,18.082-13.941,11.037-27.915,22.036a2.011,2.011,0,0,0,0,2.828,2.051,2.051,0,0,0,2.829,0Z"/><path class="d" d="M146.664,167.657a46.447,46.447,0,0,1,3.718-5.969c1.357-1.76,2.93-3.358,4.437-4.987,2.778-3,5.619-5.951,8.613-8.742,3.6-3.357,7.511-6.964,12.443-8.1a17.153,17.153,0,0,1,8.223.211,31.1,31.1,0,0,1,6.645,3.02c4.78,2.569,9.679,4.93,14.382,7.639,2.235,1.288,4.252-2.168,2.019-3.453-4.432-2.554-9.039-4.8-13.554-7.2a49.265,49.265,0,0,0-7.046-3.445,21.413,21.413,0,0,0-9.2-1.047c-5.822.644-10.322,3.849-14.6,7.6a137.708,137.708,0,0,0-9.85,9.706c-1.691,1.814-3.428,3.6-4.994,5.53a48.157,48.157,0,0,0-4.686,7.207c-1.245,2.256,2.208,4.276,3.454,2.019Z"/><path class="d" d="M267.273,181.547c12.98,6.6,26.285,12.554,37.577,21.924,1.13.938,2.244,1.9,3.3,2.923a14.185,14.185,0,0,1,2.022,2.308,20.662,20.662,0,0,1,3.017,7.485c1.405,7.289-1.528,14.375-5.835,20.133-.265.353-.517.715-.783,1.068.255-.338-.175.218-.25.311q-.284.349-.572.694c-1.078,1.285-2.206,2.53-3.359,3.748a84.569,84.569,0,0,1-9.817,9.008,2.067,2.067,0,0,0-.718,2.736,2.014,2.014,0,0,0,2.737.718,80.775,80.775,0,0,0,15.433-15.2c4.5-6,7.853-12.882,7.476-20.565a22.918,22.918,0,0,0-7.027-15.756,93.929,93.929,0,0,0-15.393-11.5c-8.315-5.044-17.132-9.093-25.788-13.5-2.289-1.164-4.316,2.286-2.019,3.454Z"/><path class="e" d="M75.817,64.4c8.191-5.173,13.652-16.29,13.463-25.107-.211-9.821-6.056-13.049-14.064-8.122-8.072,4.966-13.795,15.4-13.647,25.4C61.7,65.547,67.56,69.617,75.817,64.4Z"/><path class="e" d="M66.592,74.884c-.071.983-.075,1.969-.154,2.952a2.222,2.222,0,0,0,.586,1.414,2,2,0,0,0,2.828,0l.313-.405a1.987,1.987,0,0,0,.273-1.009c.079-.983.083-1.969.154-2.952a2.216,2.216,0,0,0-.586-1.414,2,2,0,0,0-2.828,0l-.313.405a1.987,1.987,0,0,0-.273,1.009Z"/><path class="e" d="M77.816,73.547c.241.658.533,1.3.8,1.942l-.2-.477c.178.424.358.848.511,1.283a2.132,2.132,0,0,0,.919,1.195,1.487,1.487,0,0,0,.743.238,1.526,1.526,0,0,0,.8-.036,2.025,2.025,0,0,0,1.195-.919,1.989,1.989,0,0,0,.2-1.541c-.282-.8-.637-1.58-.967-2.363l.2.478c-.12-.286-.242-.572-.349-.863a2.235,2.235,0,0,0-.919-1.2,2.244,2.244,0,0,0-1.541-.2,2.017,2.017,0,0,0-1.195.919,1.971,1.971,0,0,0-.2,1.541Z"/><path class="e" d="M57.082,69.787c-.742.765-1.548,1.467-2.293,2.231a2.071,2.071,0,0,0-.586,1.414,2.237,2.237,0,0,0,.586,1.414,2.012,2.012,0,0,0,1.414.586,2.067,2.067,0,0,0,1.415-.586c.744-.764,1.55-1.465,2.293-2.231A2.076,2.076,0,0,0,60.5,71.2a1.506,1.506,0,0,0-.172-.771,1.489,1.489,0,0,0-.413-.643A2.012,2.012,0,0,0,58.5,69.2a2.062,2.062,0,0,0-1.414.586Z"/><path class="e" d="M51.007,64.532c.9-.336,1.819-.626,2.733-.925a2.114,2.114,0,0,0,1.2-.919,1.492,1.492,0,0,0,.237-.744,1.522,1.522,0,0,0-.036-.8,2,2,0,0,0-2.46-1.4c-.914.3-1.833.589-2.734.925a2.065,2.065,0,0,0-1.4,2.46,2.03,2.03,0,0,0,.919,1.2,1.97,1.97,0,0,0,1.542.2Z"/><path class="e" d="M50.117,51.96c.958.082,1.912.213,2.866.334a2.054,2.054,0,0,0,2-2A2.022,2.022,0,0,0,54.4,48.88l-.405-.313a1.991,1.991,0,0,0-1.01-.273c-.954-.121-1.908-.252-2.866-.334a2.054,2.054,0,0,0-2,2,2.018,2.018,0,0,0,.586,1.414l.4.313a1.991,1.991,0,0,0,1.01.273Z"/><path class="c" d="M189.4,143.344c-1.089-1.574-2.32-3.026-2.461-4.931-.235-3.167,2.356-2.49,4.937-5.188a20.386,20.386,0,0,0,2.672-5.125c.483.28.965.532,1.439.758,5.341,2.543,14,2.981,21.824.8-.352,5.71-.294,9.328,1.383,14.761-5.2,3.7-13.9,5.522-20.672,4.327-3.458-.611-6.935-2.123-8.886-5.051C189.558,143.574,189.479,143.459,189.4,143.344Z"/><path class="c" d="M153.93,75.468l-2.342-5.589a2.9,2.9,0,0,1-.33-1.533,3.667,3.667,0,0,1,.685-1.335c1.239-1.908,1.441-4.288,1.565-6.56a24.251,24.251,0,0,0-.238-6.251c-.788-3.784-3.437-8.177-6.881-9.931-1.6-.814-3.969-1.3-5.115.154a3.856,3.856,0,0,0-.659,3.283l-1.539-.231a4.563,4.563,0,0,0-8.4,1.312,4.2,4.2,0,0,0-3.675-.57,2.6,2.6,0,0,0-1.635,3.082,3.857,3.857,0,0,0-4.089,2.328,4.886,4.886,0,0,0,.771,4.791q.153.193.321.372c-.431,1.139-.713,1.88-.713,1.88-.889,2.333,1.922,6.359,3.111,7.778a16.166,16.166,0,0,0,5.971,4,5.723,5.723,0,0,1,2.369,1.361,9.68,9.68,0,0,1,1.637,2.364A52.3,52.3,0,0,1,138,84.437Z"/><path class="d" d="M140.8,46.466a6.572,6.572,0,0,0-12.058,1.79l2.938-1.2a6.03,6.03,0,0,0-6.066-.388,4.619,4.619,0,0,0-2.182,5.159l2.46-2.461a5.9,5.9,0,0,0-6.348,3.247,6.942,6.942,0,0,0,1.4,7.575c3.432,3.673,11.817,3.9,12.965-2.082l-3.342.883a5.39,5.39,0,0,0,5.18,1.09,5.249,5.249,0,0,0,3.422-3.984l-2.938,1.2a5.433,5.433,0,0,0,6.724-8.371,2.012,2.012,0,0,0-2.829,0,2.05,2.05,0,0,0,0,2.828c.979,1.238-.675,2.71-1.876,2.089a2.021,2.021,0,0,0-2.938,1.2c-.146.848-.992,1.86-1.917,1.128-1.063-.84-3.029-.752-3.343.883-.51,2.66-4.356,1.982-5.9.694A3.13,3.13,0,0,1,123,54.759c.17-.748.98-1.654,1.827-1.531a2.03,2.03,0,0,0,2.461-2.461c-.332-1.218,1.884-.545,2.372-.253a2.019,2.019,0,0,0,2.938-1.2,2.593,2.593,0,0,1,4.747-.835c1.365,2.176,4.827.17,3.454-2.018Z"/><path class="d" d="M119.724,60.138c-.756,2.34.4,4.9,1.592,6.883a16.306,16.306,0,0,0,5.02,5.371,22.46,22.46,0,0,0,3.868,1.98,4.7,4.7,0,0,1,2.46,2.135,36.495,36.495,0,0,1,3.41,8.462c.7,2.473,4.56,1.422,3.857-1.064a57.128,57.128,0,0,0-3.2-8.166,12.3,12.3,0,0,0-2.215-3.348,9.742,9.742,0,0,0-3.444-1.965,13.4,13.4,0,0,1-5.417-4.073c-.929-1.3-2.581-3.59-2.076-5.152.794-2.455-3.067-3.506-3.857-1.063Z"/><path class="d" d="M155.859,74.936c-.751-1.791-1.51-3.579-2.252-5.374-.4-.976-.355-.846.167-1.712a10.488,10.488,0,0,0,1.116-2.671,24.667,24.667,0,0,0,.643-5.21,25.65,25.65,0,0,0-.29-6.064c-1.035-5.466-5.956-13.055-12.385-12.369a4.765,4.765,0,0,0-4.083,3.414c-.642,2,0,4.04.857,5.862a2.016,2.016,0,0,0,2.736.717,2.045,2.045,0,0,0,.718-2.736c-.365-.779-1.152-2.734,0-3.264,1-.461,2.729.634,3.476,1.19a13.551,13.551,0,0,1,4.707,7.677,21.549,21.549,0,0,1,.241,6.055,12.858,12.858,0,0,1-.9,4.858,19.885,19.885,0,0,0-1.18,2.146,4.233,4.233,0,0,0,.228,2.955c.731,1.881,1.562,3.729,2.342,5.589a2.066,2.066,0,0,0,2.46,1.4,2.012,2.012,0,0,0,1.4-2.46Z"/><path class="c" d="M279.255,91.42c2.028-3.279,4.986-5.854,7.771-8.521,2.151-2.059,4.315-4.371,4.916-7.287a32.047,32.047,0,0,0,.148-5.59A16.062,16.062,0,0,1,303.555,55.4c2.655-.732,6.334-.325,8.468,1.417a3.162,3.162,0,0,1,1.252,3.031,4.469,4.469,0,0,1,6.1,4.58,4.127,4.127,0,0,1,3.616.564,2.558,2.558,0,0,1,.612,3.377,3.794,3.794,0,0,1,3.137,3.405,4.809,4.809,0,0,1-2.155,4.261,5.731,5.731,0,0,1-1.514.723c-.09.741-.143,1.188-.143,1.188a6.736,6.736,0,0,1-3.029,4.387,14.052,14.052,0,0,1-6.173,2.509,5.655,5.655,0,0,0-2.6.733,9.52,9.52,0,0,0-2.141,1.871c-1.952,2.437-7.111,9.556-8.667,12.3l-2.763,4.149Z"/><path class="d" d="M306.785,71.729a6.524,6.524,0,0,0-.926.3,10.01,10.01,0,0,0-1.326.622,10.147,10.147,0,0,0-1.163.835,6.727,6.727,0,0,0-.729.683,2.1,2.1,0,0,0-.585,1.415A2.039,2.039,0,0,0,302.641,77a2,2,0,0,0,2.829,0,6.676,6.676,0,0,1,.811-.748l-.4.312a6.7,6.7,0,0,1,1.45-.847l-.478.2a6.743,6.743,0,0,1,1-.327,2,2,0,0,0,.478-3.656,2.134,2.134,0,0,0-1.541-.2Z"/><path class="d" d="M313.751,61.8a2.558,2.558,0,0,1,3.624,2.63,2.021,2.021,0,0,0,2.532,1.929,2.111,2.111,0,0,1,1.85.2.54.54,0,0,1,.119.8,2.011,2.011,0,0,0,1.2,2.938c2.5.41,1.833,3.413-.031,4.33-1.885.927-5.848.418-5.517-2.349a2.007,2.007,0,0,0-2.531-1.929c-.737.278-2.021.092-1.87-1a2.037,2.037,0,0,0-2.46-2.46,1.632,1.632,0,0,1-1.591-1.133,2.015,2.015,0,0,0-2.736-.717,2.049,2.049,0,0,0-.718,2.736,5.546,5.546,0,0,0,6.108,2.971l-2.46-2.46a5.339,5.339,0,0,0,1.639,4.976,5.194,5.194,0,0,0,5.151.941l-2.532-1.928c-.336,2.808,1.721,5.171,4.194,6.155a8.861,8.861,0,0,0,7.614-.5,6.818,6.818,0,0,0,3.376-6.417,5.773,5.773,0,0,0-4.573-5.071l1.2,2.938a4.561,4.561,0,0,0-.649-5.54,6.04,6.04,0,0,0-5.837-1.34l2.531,1.929a6.543,6.543,0,0,0-8.687-6.487,2.05,2.05,0,0,0-1.4,2.46,2.019,2.019,0,0,0,2.46,1.4Z"/><path class="d" d="M280.982,92.43c2.4-3.794,6.024-6.466,9.049-9.714a15.849,15.849,0,0,0,3.51-5.412c.842-2.376.474-4.826.549-7.282.205-6.666,6.585-14.072,13.725-12.849,1.222.209,3.935.916,3.419,2.64-.579,1.934-3.156,2.744-4.932,2.436a2.059,2.059,0,0,0-2.461,1.4,2.018,2.018,0,0,0,1.4,2.461,8.923,8.923,0,0,0,7.458-1.8,6.21,6.21,0,0,0,2.424-6.348c-1.364-4.823-8.425-5.591-12.438-4.387A18.057,18.057,0,0,0,290.16,68.96c-.268,2.636.487,5.435-.754,7.9-1.287,2.559-3.624,4.458-5.664,6.4a38.468,38.468,0,0,0-6.214,7.153c-1.382,2.181,2.078,4.19,3.454,2.019Z"/><path class="d" d="M321,77.416c-.476,3.016-4.033,4.676-6.7,5.291-1.73.4-3.245.44-4.724,1.54a13.6,13.6,0,0,0-2.718,2.7,106.5,106.5,0,0,0-8.262,11.784c-1.284,2.236,2.171,4.253,3.454,2.019,1.173-2.043,2.561-3.972,3.922-5.892q1.2-1.686,2.422-3.349.5-.683,1.014-1.36c.322-.426.552-.731.731-.955a5.69,5.69,0,0,1,2.76-2.211,31.166,31.166,0,0,0,4.944-1.243c3.1-1.291,6.457-3.715,7.017-7.264a2.062,2.062,0,0,0-1.4-2.46,2.015,2.015,0,0,0-2.46,1.4Z"/><path class="f" d="M163.406,199.13c.147-12.652,1.4-39.736,3.058-50.35l-.919-1.411c-8.3-12.741-20.466-38.312-29.436-61.192a1.675,1.675,0,0,1-.216-.829c.064-.435.489-.709.872-.926,7.331-4.138,12.646-6.814,19.977-10.953,2.547,5.95,9.8,21.536,13.409,27.8,3.578,6.21,9.465,15.968,14.139,22.324l2.435-2.366a27.294,27.294,0,0,0,7.816,6.888,20.324,20.324,0,0,1-2.666,5.111c-2.581,2.7-5.172,2.021-4.937,5.188.151,2.045,1.558,3.567,2.7,5.278,1.951,2.928,5.428,4.44,8.886,5.051,6.769,1.2,15.468-.63,20.678-4.329a36.79,36.79,0,0,1-1-3.925l1.456-.485c5.333-1.778,10.8-4,13.151-5.908,20.665-16.531,30.584-27.277,47.942-48.768,5.269,5.27,14.348,12.531,19.838,18.185-8.137,12.2-34.969,46.844-51.483,64.745-3.617,3.921-5.046,9.2-6.6,17.875-2.486,12.038-5.037,24.593-7.111,36.148Z"/><path class="d" d="M220.184,141.932A91.137,91.137,0,0,0,229.3,138.4a30.142,30.142,0,0,0,6.456-4.127c4.368-3.526,8.671-7.135,12.846-10.889a241.222,241.222,0,0,0,20.847-21.354c4.344-5.006,8.545-10.135,12.71-15.29h-2.828c6.361,6.331,13.566,11.76,19.838,18.185l-.313-2.423c-3.6,5.392-7.508,10.585-11.416,15.757q-8.107,10.728-16.543,21.2c-5.679,7.068-11.447,14.07-17.411,20.9-2.538,2.907-5.5,5.654-7.672,8.852-2.391,3.525-3.51,7.808-4.379,11.924q-4.278,20.233-7.97,40.61a2.056,2.056,0,0,0,1.4,2.46,2.017,2.017,0,0,0,2.46-1.4c2.188-12.166,4.854-24.232,7.152-36.375.842-4.449,1.549-9.171,3.639-13.246,1.682-3.279,4.537-5.836,6.951-8.574,11.925-13.528,23.161-27.692,34.084-42.037,4.508-5.921,9.027-11.867,13.162-18.059A2.023,2.023,0,0,0,302,102.1c-6.272-6.426-13.477-11.854-19.838-18.185a2.012,2.012,0,0,0-2.828,0c-6.8,8.415-13.694,16.775-21.161,24.613a250.88,250.88,0,0,1-22.442,20.639,39.818,39.818,0,0,1-6.871,5.019,69.52,69.52,0,0,1-9.737,3.891c-2.428.814-1.387,4.679,1.063,3.857Z"/><path class="d" d="M192.613,127.583c-.656,1.735-1.468,3.843-2.975,4.981-1.388,1.047-3.25,1.506-4.147,3.124-1.1,1.985-.461,4.475.6,6.328a19.053,19.053,0,0,0,4.143,5.264c6.427,5.25,16.635,4.522,23.99,1.862,3.893-1.408,7.725-3.553,10.047-7.09,1.417-2.158-2.045-4.164-3.454-2.019-1.524,2.322-4.173,3.844-6.684,4.88a29.57,29.57,0,0,1-10.1,2.171c-3.456.132-7.148-.262-10.159-2.095a12.173,12.173,0,0,1-3.566-3.816c-.558-.8-1.941-2.862-1.255-3.6a9.526,9.526,0,0,1,1.869-1.074,10.014,10.014,0,0,0,2.519-2.04,19.927,19.927,0,0,0,3.031-5.811,2.016,2.016,0,0,0-1.4-2.46,2.043,2.043,0,0,0-2.46,1.4Z"/><path class="d" d="M215.732,130.989a40.03,40.03,0,0,0,1.214,12.879,2,2,0,1,0,3.857-1.063,29.523,29.523,0,0,1-1.064-5.681,47.935,47.935,0,0,1-.007-6.135,2.014,2.014,0,0,0-2-2,2.043,2.043,0,0,0-2,2Z"/><path class="c" d="M240.375,103.762a4.875,4.875,0,0,1,3.522.212,3.613,3.613,0,0,1,2.3,4.422,12.359,12.359,0,0,1-3.918,6.744,9.491,9.491,0,0,1-3.605,2.121,7.951,7.951,0,0,1-3.583.217s-.174-.03-.476-.091a25.986,25.986,0,0,1-1.592,2.333,31.443,31.443,0,0,1-5.648,5.415c-9.021,6.677-23.675,7.4-31.392,3.723-8.864-4.221-20.12-17.307-15.2-41.788,0,0,1.37-23.892,26.494-18.176C248.307,78.228,240.375,103.762,240.375,103.762Z"/><path class="d" d="M203.574,97.2c-.46.723-.9,1.461-1.3,2.224A3.787,3.787,0,0,0,201.8,101a2.43,2.43,0,0,0,.8,1.893,3.626,3.626,0,0,0,1.429.833,6.764,6.764,0,0,0,1.024.153l-.532-.072.066.011a1.526,1.526,0,0,0,.8.036,1.5,1.5,0,0,0,.743-.238,2,2,0,0,0,.718-2.736,1.952,1.952,0,0,0-1.195-.919c-.282-.049-.567-.075-.85-.113l.531.071a1.676,1.676,0,0,1-.368-.1l.478.2a1.555,1.555,0,0,1-.321-.191l.4.313a1.817,1.817,0,0,1-.23-.217l.313.4a.436.436,0,0,1-.05-.083l.2.478a.65.65,0,0,1-.035-.138l.072.532a.814.814,0,0,1,0-.148l-.072.532a1.483,1.483,0,0,1,.09-.3l-.2.478a12.962,12.962,0,0,1,.7-1.291c.232-.394.468-.786.714-1.172a2,2,0,0,0-.718-2.736,2.022,2.022,0,0,0-1.541-.2,2.153,2.153,0,0,0-1.195.92Z"/><path class="d" d="M218.551,99.636a4,4,0,0,1,.783-.2l-.532.071a4.349,4.349,0,0,1,1.151,0l-.532-.072a4.719,4.719,0,0,1,1.119.31l-.478-.2a4.632,4.632,0,0,1,.943.544l-.405-.313a4.129,4.129,0,0,1,.72.709l-.313-.405a4.1,4.1,0,0,1,.263.39,2.077,2.077,0,0,0,1.2.919,2,2,0,0,0,2.258-2.938A6.269,6.269,0,0,0,221.38,95.8a5.9,5.9,0,0,0-3.892-.022,2.158,2.158,0,0,0-1.2.919,2.044,2.044,0,0,0-.2,1.541,2.017,2.017,0,0,0,.919,1.195,1.968,1.968,0,0,0,1.541.2Z"/><path class="d" d="M200.618,90.332a5.908,5.908,0,0,0-1.56-1.549,5.46,5.46,0,0,0-1.647-.737,5.526,5.526,0,0,0-1.782-.2,5.918,5.918,0,0,0-2.181.574,2.01,2.01,0,0,0-.919,1.2,2.045,2.045,0,0,0,.2,1.542,2.017,2.017,0,0,0,1.195.919l.532.071a1.987,1.987,0,0,0,1.009-.273l.108-.049-.478.2a3.44,3.44,0,0,1,.857-.231l-.532.071a3.863,3.863,0,0,1,.955,0l-.532-.072a4.163,4.163,0,0,1,.987.265l-.478-.2a3.951,3.951,0,0,1,.83.476l-.405-.312a3.469,3.469,0,0,1,.592.582l-.312-.405c.036.048.071.1.1.144a2.153,2.153,0,0,0,1.2.919,2.043,2.043,0,0,0,1.541-.2,2.017,2.017,0,0,0,.919-1.195,1.966,1.966,0,0,0-.2-1.541Z"/><path class="d" d="M197.1,119.151a5.47,5.47,0,0,0,9.1-.3c2.118-3.518.665-6.114-.483-7.727-1.445-1.369-4.5-2.066-5.923-1.368C197.441,110.915,194.928,116.033,197.1,119.151Z"/><path class="d" d="M186.017,122.582c-9.264-12.645-16.677-26.49-23.279-40.666-1.459-3.134-2.905-6.278-4.269-9.456a2.021,2.021,0,0,0-2.736-.717c-6.054,3.411-12.219,6.619-18.288,10-1.322.738-3.085,1.434-3.481,3.07s.984,3.845,1.585,5.342q1.958,4.879,4.016,9.719c5.129,12.09,10.634,24.052,16.808,35.647,2.594,4.873,5.352,9.638,8.364,14.264l-.2-1.541c-.943,6.1-1.365,12.283-1.773,18.436q-.737,11.131-1.1,22.284c-.116,3.386-.21,6.774-.251,10.162-.031,2.575,3.969,2.576,4,0,.173-14.38.83-28.835,2.2-43.152.139-1.455.291-2.909.468-4.36.084-.693.107-.879.2-1.5a3.735,3.735,0,0,0-.513-3.017q-2.561-3.931-4.869-8.016c-4.317-7.616-8.207-15.476-11.92-23.4q-3.477-7.419-6.717-14.947-1.667-3.864-3.266-7.756-.756-1.839-1.5-3.685-.409-1.017-.812-2.035a14.592,14.592,0,0,1-.745-1.683l-.515.883a9.192,9.192,0,0,1,2.46-1.493q1.2-.667,2.4-1.326,2.552-1.4,5.114-2.773c3.467-1.868,6.93-3.743,10.36-5.677l-2.736-.717a285.65,285.65,0,0,0,19.31,37.687c2.614,4.228,5.3,8.424,8.238,12.435a2.061,2.061,0,0,0,2.737.718,2.016,2.016,0,0,0,.717-2.737Z"/><path class="g" d="M235.314,95.075a41.715,41.715,0,0,0-3.686-10.585,19.258,19.258,0,0,0-4.026-5.573l-6.264-3.8c-4.524.544-11.206,2.434-14.9,3.275a1.129,1.129,0,0,1-1.274-1.542,5.417,5.417,0,0,0,.4-2.047c.011-.9-.575-1.435-1.177-1.312-5.135,1.044-13.154,5.141-17.849,8.025,0,0-3.773,2.521-5.168,4.778a31.388,31.388,0,0,1,5.277-23.06,29.951,29.951,0,0,1,15.18-10.772,31.35,31.35,0,0,0-5.427-3.6c4.515-1.86,13.477-3.1,18.95-1.787,5.493,1.32,13.516,3.528,17.258,11.191,5.465.51,11.942,6.207,13.81,9.122a26.157,26.157,0,0,1,2.991,6.869,28.913,28.913,0,0,1,.851,8.188,36.071,36.071,0,0,1-1.234,9.789,59.235,59.235,0,0,1-2.922,8.405,7.941,7.941,0,0,1-.739,1.264l-1.292,2.167c-.06-.03-.12-.059-.182-.087a4.875,4.875,0,0,0-3.522-.212l-4.533-4A26.93,26.93,0,0,0,235.314,95.075Z"/><path class="d" d="M240.906,105.69a2.7,2.7,0,0,1,2.027.042,2.888,2.888,0,0,1,1.24.983c.221.373.012-.181.1.2a1.31,1.31,0,0,1,.053.489,5.574,5.574,0,0,1-.2,1.1c-.109.42-.245.831-.4,1.239a1.085,1.085,0,0,1-.137.322c-.112.229-.223.457-.345.68a9.491,9.491,0,0,1-1.343,1.94,12.218,12.218,0,0,1-1.721,1.606,6.609,6.609,0,0,1-2.151,1.078,5.809,5.809,0,0,1-2.409.185,2.063,2.063,0,0,0-2.46,1.4,2.015,2.015,0,0,0,1.4,2.46,10.292,10.292,0,0,0,7.73-1.729,14.624,14.624,0,0,0,4.8-5.7c1.116-2.447,1.943-5.466.163-7.808a6.866,6.866,0,0,0-7.413-2.339,2.045,2.045,0,0,0-1.4,2.46,2.021,2.021,0,0,0,2.46,1.4Z"/><path class="d" d="M232.786,60.275c3.633.676,6.892,2.94,9.535,5.439A19.318,19.318,0,0,1,247.547,75a26.279,26.279,0,0,1,.721,6.984,37.39,37.39,0,0,1-.489,6.676,47.05,47.05,0,0,1-1.708,6.5,24.187,24.187,0,0,1-2.427,5.727c-1.421,2.155,2.042,4.161,3.454,2.019a23.977,23.977,0,0,0,2.273-5.085,55,55,0,0,0,1.648-5.292,44.016,44.016,0,0,0,1.234-11.918,28.866,28.866,0,0,0-2.66-11.594,20.887,20.887,0,0,0-5.721-7.267c-2.879-2.418-6.268-4.631-10.023-5.33-2.516-.468-3.594,3.386-1.063,3.857Z"/><path class="d" d="M201.3,50.53a32.148,32.148,0,0,0-16.263,11.538,33.147,33.147,0,0,0-6.05,18.222c-.1,2.574,3.905,2.57,4,0A29.441,29.441,0,0,1,188.3,64.358a27.6,27.6,0,0,1,14.069-9.971c2.444-.776,1.4-4.639-1.064-3.857Z"/><path class="d" d="M234.3,57.165c-3.339-6.565-9.912-9.839-16.755-11.615a32.083,32.083,0,0,0-10.688-.906,37.37,37.37,0,0,0-10.984,2.281c-1.48.6-2.132,2.762-.478,3.655a27.893,27.893,0,0,1,5.023,3.293c1.939,1.674,4.781-1.143,2.828-2.829a32.478,32.478,0,0,0-5.832-3.918l-.478,3.656a32.19,32.19,0,0,1,19.283-1.443c5.977,1.527,11.7,4.082,14.627,9.845,1.167,2.3,4.619.273,3.454-2.019Z"/><path class="d" d="M178.862,86.538c-2.59,13.1-1.43,27.7,8,37.936a25.6,25.6,0,0,0,11.6,7.431,37.435,37.435,0,0,0,20.694-.564c7.833-2.394,15.044-7.8,18.4-15.414a2.064,2.064,0,0,0-.718-2.736,2.015,2.015,0,0,0-2.736.717c-5.323,12.064-20.334,17.094-32.665,14.6-9-1.819-15.37-9.42-18.09-17.991-2.353-7.413-2.136-15.358-.641-22.919.5-2.514-3.358-3.59-3.857-1.063Z"/><path class="d" d="M226.188,80.331a23.974,23.974,0,0,1,5.216,8.513,32.673,32.673,0,0,1,2.438,10.922c.06,2.57,4.06,2.579,4,0a35.985,35.985,0,0,0-2.712-12.317,28.427,28.427,0,0,0-6.114-9.946c-1.823-1.823-4.652,1-2.828,2.828Z"/><path class="d" d="M221.338,73.113a91.206,91.206,0,0,0-10.564,2.153c-.822.2-1.643.411-2.466.615q-.556.139-1.115.275l-.449.108c-.575.137-.749-.062-.107.623.775.827.3.555.566.2a2.375,2.375,0,0,0,.174-.623,8.169,8.169,0,0,0,.175-1.255,3.662,3.662,0,0,0-.931-2.858c-1.329-1.342-3.109-.774-4.692-.3a46.287,46.287,0,0,0-4.754,1.754,88.56,88.56,0,0,0-9.7,4.83,24.3,24.3,0,0,0-7.149,5.713,2.066,2.066,0,0,0,0,2.829,2.013,2.013,0,0,0,2.828,0,19.493,19.493,0,0,1,5.473-4.584,89.74,89.74,0,0,1,8.921-4.622,47.829,47.829,0,0,1,4.488-1.762c.667-.221,1.341-.424,2.022-.595.076-.019.579-.121.582-.138l-.535-.338q-.61-.711-.545-.132a5.774,5.774,0,0,0-.215,1.021c-.53,1.806.1,3.768,2.093,4.286,1.418.368,3.23-.4,4.609-.742a97.231,97.231,0,0,1,11.29-2.457,2.065,2.065,0,0,0,2-2,2.012,2.012,0,0,0-2-2Z"/><path class="c" d="M290.179,251.307c-18.27-11.89-62.527-37.064-71.165-41.264-16.424-7.988-97.3-47.2-123.229-44.84-12.691,1.154-24.379,7.194-35.363,13.653C34.606,194.035,23.7,202.28,2.026,222.95h0A106.276,106.276,0,0,0,108.3,329.228h208.54c.574-8.61-2.253-37.728-2.8-40.912-2.378-13.847-6.409-21.934-16.488-31.721A61.8,61.8,0,0,0,290.179,251.307Z"/><path class="d" d="M3.44,224.364c12.9-12.292,26.223-23.832,41.213-33.517a304.018,304.018,0,0,1,26.661-15.741c8.223-4.193,17.589-8.032,26.976-8a63.328,63.328,0,0,1,14.383,2.079c6.3,1.482,12.507,3.393,18.641,5.461C145.39,179.387,159.174,185,172.8,190.9q17.52,7.584,34.744,15.83c6.628,3.156,13.186,6.372,19.62,9.909,11.2,6.157,22.284,12.52,33.313,18.972,10.31,6.032,20.679,12.052,30.616,18.689,1.387.927,2.77,1.865,4.092,2.882-.457-.352.193.157.333.275.181.152.359.307.533.468a62.119,62.119,0,0,1,4.593,4.812,48.5,48.5,0,0,1,10.721,22.214c.259,1.209.5,2.424.7,3.643.033.194.172,1.147.088.512.117.889.216,1.781.313,2.672.308,2.81.578,5.624.833,8.439.648,7.13,1.228,14.277,1.507,21.432a74.534,74.534,0,0,1,.031,7.578c-.162,2.57,3.839,2.561,4,0,.389-6.2-.235-12.533-.689-18.714-.475-6.468-1.029-12.936-1.753-19.381a62.738,62.738,0,0,0-5.351-19.923,49.3,49.3,0,0,0-6.984-10.611,45.09,45.09,0,0,0-6.205-6.364,114.43,114.43,0,0,0-10.006-6.792c-5.219-3.3-10.507-6.491-15.812-9.652q-17.73-10.563-35.741-20.65c-6.941-3.892-13.9-7.69-21.067-11.147q-15.707-7.575-31.631-14.689c-13.9-6.192-27.947-12.121-42.243-17.357-11.991-4.391-24.39-8.727-37.108-10.4-18.008-2.362-34.7,7.482-49.568,16.38-7.86,4.7-15.626,9.582-23.037,14.972A246.707,246.707,0,0,0,11.615,211.29c-3.722,3.357-7.376,6.788-11,10.246-1.868,1.779.964,4.6,2.828,2.828Z"/></svg>