<svg xmlns="http://www.w3.org/2000/svg" width="342.336" height="287.681" viewBox="0 0 342.336 287.681"><defs><style>.a{fill:#febe69;}.b{fill:#211715;}.c{fill:#c6c6c6;}.d{fill:#fff;}.e{fill:#3d8dcc;}</style></defs><path class="a" d="M298.565,269.428l10.552,10.554a18.3,18.3,0,0,1-9.216,2.777c-10.008.215-19.861-8.457-20.83-18.42a19.575,19.575,0,0,1,2.915-11.972l-26.653-26.653a19.575,19.575,0,0,1-11.972,2.915c-9.963-.969-18.635-10.822-18.421-20.83a18.314,18.314,0,0,1,2.778-9.216l10.554,10.552L251.308,196.1l-10.553-10.553a18.311,18.311,0,0,1,9.217-2.778c10.009-.215,19.861,8.457,20.83,18.421a19.575,19.575,0,0,1-2.915,11.972l26.653,26.653a19.575,19.575,0,0,1,11.972-2.915c9.964.969,18.636,10.821,18.421,20.83a18.306,18.306,0,0,1-2.779,9.216L311.6,256.392Z"/><path class="b" d="M296.868,271.125l10.552,10.554.486-3.769a15.856,15.856,0,0,1-11.572,2.116A19.446,19.446,0,0,1,287,274.933a18.446,18.446,0,0,1-5.279-9.144,16.891,16.891,0,0,1,2.338-12.211,2.444,2.444,0,0,0-.375-2.908L257.03,224.017a2.446,2.446,0,0,0-2.908-.375,16.886,16.886,0,0,1-12.211,2.337,18.437,18.437,0,0,1-9.144-5.278,19.446,19.446,0,0,1-5.093-9.335,15.856,15.856,0,0,1,2.116-11.572l-3.769.486,10.554,10.552a2.436,2.436,0,0,0,3.394,0L253.005,197.8a2.436,2.436,0,0,0,0-3.394l-10.552-10.553-.486,3.77a15.85,15.85,0,0,1,11.572-2.117,19.446,19.446,0,0,1,9.335,5.093,18.446,18.446,0,0,1,5.279,9.144,16.883,16.883,0,0,1-2.338,12.21,2.446,2.446,0,0,0,.375,2.909l26.653,26.653a2.448,2.448,0,0,0,2.909.375,16.883,16.883,0,0,1,12.21-2.338,18.446,18.446,0,0,1,9.144,5.279,19.446,19.446,0,0,1,5.093,9.335,15.85,15.85,0,0,1-2.117,11.572l3.77-.486L313.3,254.694a2.438,2.438,0,0,0-3.394,0l-13.037,13.037c-2.187,2.187,1.206,5.582,3.394,3.394L313.3,258.089H309.9l10.552,10.553a2.428,2.428,0,0,0,3.77-.486,21.215,21.215,0,0,0,.018-21.8,23.686,23.686,0,0,0-17.207-11.8,21.946,21.946,0,0,0-13.709,3.181l2.908.376-26.653-26.653.375,2.908a21.419,21.419,0,0,0,.166-22.354,24.435,24.435,0,0,0-17.513-11.5,20.633,20.633,0,0,0-13.068,2.959,2.428,2.428,0,0,0-.486,3.77L249.611,197.8V194.4l-13.036,13.037h3.394l-10.554-10.552a2.427,2.427,0,0,0-3.769.486,21.212,21.212,0,0,0-.018,21.793,23.69,23.69,0,0,0,17.207,11.8,21.94,21.94,0,0,0,13.709-3.182l-2.908-.375,26.653,26.653-.375-2.908a21.419,21.419,0,0,0-.166,22.354,24.437,24.437,0,0,0,17.513,11.5,20.628,20.628,0,0,0,13.067-2.959,2.427,2.427,0,0,0,.486-3.769l-10.552-10.554C298.075,265.544,294.68,268.937,296.868,271.125Z"/><path class="c" d="M120.072,242.957V222.571h-11.84a43,43,0,0,0-4.527-11.525c2.872-2.873,6.162-6.162,8.2-8.2L97.488,188.433l-8.091,8.09a40.891,40.891,0,0,0-11.632-4.448V180.263H57.379v11.964a44.53,44.53,0,0,0-11.543,4.385c-2.828-2.828-6.2-6.195-8.179-8.179L23.241,202.848c1.992,1.991,5.208,5.207,8.017,8.017a41.122,41.122,0,0,0-4.447,11.706H15.072v20.386H26.926a44.434,44.434,0,0,0,4.381,11.656l-8.066,8.066,14.416,14.415,7.917-7.918a40.3,40.3,0,0,0,11.805,4.383v11.7H77.765v-12.2a45.757,45.757,0,0,0,10.948-4.742l8.775,8.775L111.9,262.679l-8.466-8.466a39.671,39.671,0,0,0,4.714-11.256Z"/><path class="d" d="M66.757,216.865a15.8,15.8,0,0,1,12.009,4.077c5.76,5.519,6.426,15.958,1.357,22.118-5.453,6.628-16.687,7.584-23.133,1.922s-7.251-16.125-1.555-22.469A17.274,17.274,0,0,1,66.757,216.865Z"/><path class="b" d="M66.757,219.265a14.26,14.26,0,0,1,9.253,2.469,12.666,12.666,0,0,1,4.48,6.664c1.526,5.174.416,11.272-3.888,14.8a14.942,14.942,0,0,1-14.856,1.983c-5.026-2.163-7.874-7.508-7.725-12.853a13.855,13.855,0,0,1,12.736-13.066,2.458,2.458,0,0,0,2.4-2.4,2.419,2.419,0,0,0-2.4-2.4c-8.015.564-15.479,6.408-17.124,14.414a18.728,18.728,0,0,0,7.693,19.351c5.919,3.881,14.2,3.725,20.21.14,6.583-3.925,9.263-11.574,8.1-18.935a18.025,18.025,0,0,0-5.47-10.466,18.566,18.566,0,0,0-13.409-4.5C63.68,214.605,63.663,219.405,66.757,219.265Z"/><path class="b" d="M122.472,241.171v-12.82c0-1.6.276-3.533-.156-5.1-.923-3.364-4.29-3.075-7.009-3.075h-7.075l2.315,1.762a46.836,46.836,0,0,0-4.77-12.1l-.375,2.908q2.338-2.339,4.678-4.678c1.47-1.471,3.49-2.933,3.487-5.221s-2.034-3.76-3.5-5.228l-4.36-4.36-3.778-3.778c-1.268-1.268-2.475-2.713-4.44-2.713-2.265,0-3.721,2-5.179,3.453L87.7,194.826l2.908-.375a44.5,44.5,0,0,0-12.2-4.69l1.762,2.314v-9.166c0-2.459-1.109-4.773-3.865-5.017-.84-.074-1.7-.029-2.539-.029H62.325c-1.025,0-2.059-.041-3.083,0a4.313,4.313,0,0,0-4.263,4.453c-.08,3.3,0,6.61,0,9.911l1.762-2.314a48.414,48.414,0,0,0-12.117,4.627l2.909.375-4.656-4.656c-1.467-1.467-2.933-3.49-5.218-3.492-1.976,0-3.168,1.437-4.442,2.711l-3.638,3.639-4.208,4.207c-1.447,1.447-3.6,2.976-3.76,5.181-.171,2.39,1.667,3.774,3.2,5.3q2.378,2.376,4.753,4.753l-.375-2.909a44.755,44.755,0,0,0-4.689,12.28l2.314-1.762H17.667c-2.446,0-4.726,1.144-4.966,3.864-.08.9-.029,1.817-.029,2.718v11.258c0,1.025-.041,2.059,0,3.083a4.313,4.313,0,0,0,4.459,4.263c3.262.071,6.532,0,9.795,0L24.612,243.6a48.28,48.28,0,0,0,4.623,12.229l.375-2.908q-2.4,2.4-4.8,4.8c-1.517,1.517-3.371,2.929-3.206,5.3.125,1.792,1.5,2.918,2.68,4.1l3.779,3.778,4.36,4.36c1.388,1.389,2.775,3.317,4.889,3.468,2.364.169,3.754-1.647,5.265-3.158l4.692-4.693-2.908.375a43.867,43.867,0,0,0,12.378,4.625l-1.762-2.314v9.184c0,2.587,1.366,4.79,4.185,4.92.8.037,1.6,0,2.4,0H73.017c.97,0,1.949.039,2.919,0a4.326,4.326,0,0,0,4.229-4.542c.067-3.351,0-6.709,0-10.06L78.4,275.375a49.9,49.9,0,0,0,11.521-4.983l-2.908-.376q2.352,2.353,4.7,4.7c1.346,1.346,2.853,3.475,4.792,3.92,2.634.6,4.258-1.437,5.916-3.094l4.509-4.51,3.92-3.919c1.33-1.331,2.754-2.548,2.695-4.609-.065-2.276-2.244-3.818-3.719-5.293l-4.7-4.7.375,2.909a43.274,43.274,0,0,0,4.956-11.83l-2.314,1.762h6.9c1.024,0,2.054.034,3.077,0a4.321,4.321,0,0,0,4.345-4.186,2.419,2.419,0,0,0-2.4-2.4,2.45,2.45,0,0,0-2.4,2.4c.049-.545.831-.522.421-.614a4.9,4.9,0,0,0-.991,0h-8.951a2.443,2.443,0,0,0-2.315,1.762A38.744,38.744,0,0,1,101.365,253a2.438,2.438,0,0,0,.375,2.908l3.8,3.8,1.781,1.781c.21.21,1.384,1.658,1.63,1.63-.769.086.641-1.261-.241-.639a4.539,4.539,0,0,0-.537.537l-1.376,1.376-3.251,3.25-3.634,3.634-1.738,1.738a6.41,6.41,0,0,0-.844.844q-.623.516.163.1.69.387.31.055a10.022,10.022,0,0,0-1.8-1.8l-1.8-1.8-3.8-3.8a2.45,2.45,0,0,0-2.909-.375,44.647,44.647,0,0,1-10.374,4.5,2.451,2.451,0,0,0-1.762,2.314v8.352a17.071,17.071,0,0,0,0,1.708c0,.041-.037.292,0,.326-.136-.124.47-.767.6-.584-.155-.214-2.122,0-2.385,0H63.159c-1.173,0-2.361-.052-3.533,0-.617.028-.268-.125-.151.084.37.666.3.542.3-.072v-9.316a2.432,2.432,0,0,0-1.762-2.315,39.513,39.513,0,0,1-11.231-4.14,2.456,2.456,0,0,0-2.909.375l-3.78,3.78-1.789,1.79-.694.693-.4.4a.478.478,0,0,1,.657-.1q.483.245-.056-.187l-.42-.419-.853-.854-1.6-1.6L31.459,267.5l-2.992-2.992-1.2-1.2c-.138-.137-.9-1.086-1.073-1.073.749-.06-.6,1.3.269.617a10.221,10.221,0,0,0,.845-.846l1.836-1.836L33,256.31a2.457,2.457,0,0,0,.376-2.908,43.476,43.476,0,0,1-4.14-11.083,2.43,2.43,0,0,0-2.314-1.762H18.572a10.044,10.044,0,0,0-1.441,0c-.8.12.813.2.341.571.24-.188,0-2.229,0-2.537V228.243c0-1.161.071-2.35,0-3.51-.036-.587.123-.178-.084-.067-.805.435-.4.305.207.305h9.216a2.435,2.435,0,0,0,2.315-1.762,40.232,40.232,0,0,1,4.205-11.133,2.454,2.454,0,0,0-.376-2.908l-3.822-3.822-1.825-1.826a10.539,10.539,0,0,0-.846-.845c-.874-.686.451.723-.261.608.231.037,1.482-1.482,1.692-1.693l1.605-1.6,3.475-3.474,2.97-2.97,1.281-1.281c.18-.181.378-.358.548-.549.369-.415.451-.188-.113-.144q-.694-.381-.309-.047l.4.4.844.844,1.811,1.811,3.735,3.734a2.457,2.457,0,0,0,2.908.375,43.554,43.554,0,0,1,10.97-4.142,2.434,2.434,0,0,0,1.762-2.315v-8.3a11.369,11.369,0,0,0,0-1.609c-.117-.777-.121.8-.583.347.084.082.606,0,.732,0H72.2c1.126,0,2.278.069,3.4,0,.536-.032.349.006-.154-.3-.415-.255.022-.432-.084-.186a1.921,1.921,0,0,0,0,.6v9.306a2.435,2.435,0,0,0,1.762,2.315A39.971,39.971,0,0,1,88.185,198.6a2.454,2.454,0,0,0,2.909-.376q1.85-1.85,3.7-3.7l1.783-1.783.831-.83.393-.394q.382-.332-.314.052c-.564-.039-.486-.271-.115.146.169.191.368.368.548.549l1.281,1.281,3.11,3.109,3.482,3.482,1.745,1.746.851.85.279.279q.514.624.1-.163l.184-.438-.533.532-.844.845-1.654,1.653-3.913,3.913a2.453,2.453,0,0,0-.375,2.908,42.068,42.068,0,0,1,4.286,10.952,2.434,2.434,0,0,0,2.314,1.762h8.879a4.9,4.9,0,0,0,.984,0c.662-.149-.961-.212-.423-.612-.107.079,0,1.076,0,1.2v15.614C117.672,244.26,122.472,244.265,122.472,241.171Z"/><path class="d" d="M262.362,87.5v16.6H287.5v-2.977s0-5.2,0-11.475c0-.7,0-1.423,0-2.146Z"/><path class="b" d="M259.962,84.6V100.87a2.4,2.4,0,1,0,4.8,0V84.6a2.4,2.4,0,0,0-4.8,0Z"/><path class="b" d="M285.1,84.6v16.521a2.4,2.4,0,0,0,4.8,0V84.6a2.4,2.4,0,0,0-4.8,0Z"/><path class="b" d="M251.3,106.5h47.279c3.089,0,3.094-4.8,0-4.8H251.3c-3.089,0-3.094,4.8,0,4.8Z"/><path class="d" d="M213.246,87.5H336.64a3.3,3.3,0,0,0,3.3-3.309q-.01-39.2-.008-78.392a3.307,3.307,0,0,0-3.307-3.308H213.244A3.308,3.308,0,0,0,209.937,5.8V84.2A3.309,3.309,0,0,0,213.246,87.5Z"/><path class="b" d="M213.246,89.9H335.133c2.552,0,4.967-.372,6.4-2.784a8.159,8.159,0,0,0,.806-4.423q0-2.745,0-5.492,0-21.471,0-42.941,0-10.735,0-21.471V7.3a8.047,8.047,0,0,0-.892-4.559A5.863,5.863,0,0,0,336.584.094c-6.072-.212-12.191,0-18.266,0H214.5c-.417,0-.837-.015-1.253,0a5.872,5.872,0,0,0-5.708,6.12c-.021,3.237,0,6.475,0,9.713V55.735c0,9.348-.066,18.7,0,28.048a5.883,5.883,0,0,0,5.709,6.12c3.087.155,3.079-4.645,0-4.8-1.08-.055-.909-1.167-.909-1.945V9.463c0-1.089-.018-2.18,0-3.268.011-.721.178-1.207,1-1.3a50.915,50.915,0,0,1,5.58,0H334.473c.655,0,1.324-.037,1.979,0a1.074,1.074,0,0,1,.812.266c.654.654.265,2.271.265,3.139v5.492q0,20.972,0,41.942,0,10.487,0,20.972,0,2.5,0,4.993c0,.855.395,2.52-.261,3.167-.437.431-1.368.238-1.922.238H213.246C210.157,85.1,210.152,89.9,213.246,89.9Z"/><path class="e" d="M301.187,50.23V40.037h-5.92A21.52,21.52,0,0,0,293,34.275l4.1-4.1-7.208-7.208-4.045,4.046a20.41,20.41,0,0,0-5.816-2.224V18.884H269.84v5.982a22.22,22.22,0,0,0-5.772,2.192l-4.089-4.09-7.208,7.208,4.009,4.008a20.549,20.549,0,0,0-2.224,5.853h-5.869V50.23h5.927a22.212,22.212,0,0,0,2.19,5.829l-4.033,4.032,7.208,7.208,3.959-3.959a20.127,20.127,0,0,0,5.9,2.191v5.853h10.193v-6.1a22.881,22.881,0,0,0,5.474-2.371l4.387,4.387,7.208-7.208-4.233-4.232a19.847,19.847,0,0,0,2.357-5.629Z"/><path class="d" d="M274.529,37.184a7.9,7.9,0,0,1,6,2.039,8.561,8.561,0,0,1,.679,11.059,8.439,8.439,0,0,1-11.566.961,8.09,8.09,0,0,1-.778-11.235A8.635,8.635,0,0,1,274.529,37.184Z"/><path class="b" d="M274.529,39.584c.456-.02.9,0,1.359.02.7.038-.421-.125.252.038.145.035.292.06.437.1.216.054.426.131.641.188.644.172-.344-.209.251.093a7.377,7.377,0,0,1,1.153.688c-.38-.289.194.194.214.213.135.13.265.264.389.4.082.093.162.189.24.286-.369-.462.005.037.059.122a9.547,9.547,0,0,1,.538.989c-.037-.076-.17-.468-.024-.05.083.239.167.477.235.721.086.307.145.617.207.93.123.618-.01-.511.009.12.006.191.026.381.03.572.006.319-.013.635-.03.953-.035.633.117-.5-.011.116-.052.248-.1.5-.162.74-.081.3-.182.6-.293.893.211-.56-.016.01-.067.108q-.128.249-.275.488c-.065.105-.138.206-.2.312-.317.508.331-.324-.081.1-.274.283-.58.543-.851.826-.237.249.461-.287-.023.009-.156.095-.3.2-.462.294-.263.155-.536.289-.813.418.554-.257,0-.01-.109.027q-.261.09-.528.163a9.282,9.282,0,0,1-1.082.227c.641-.1.023-.016-.1-.009-.184.012-.369.018-.554.018-.308,0-.612-.027-.92-.046.633.039.044,0-.089-.02q-.27-.051-.536-.12c-.118-.031-.236-.064-.352-.1s-.865-.338-.281-.075a7.605,7.605,0,0,1-.808-.416c-.157-.093-.306-.2-.459-.3-.5-.322.33.343-.089-.078-.228-.229-.47-.44-.685-.683-.069-.079-.418-.584-.1-.113-.142-.21-.285-.418-.413-.637-.068-.117-.483-1-.257-.445a8.2,8.2,0,0,1-.354-1.072c-.043-.17-.185-1.119-.119-.47a9.32,9.32,0,0,1-.052-1.216c0-.156.02-.312.026-.467q.045-.414-.018.081c.02-.124.042-.246.067-.368.075-.371.194-.72.3-1.08.175-.583-.239.42.046-.119.118-.223.227-.448.358-.664.066-.108.138-.212.206-.319.156-.217.145-.208-.034.025.081-.1.164-.2.25-.293a7.908,7.908,0,0,1,.963-.912c-.379.3.214-.138.242-.157q.381-.249.783-.459c-.035.018.633-.3.329-.169-.149.06-.105.043.132-.049.14-.051.282-.1.425-.144.213-.065.428-.122.646-.169.143-.031.287-.058.433-.08q-.416.057.011.017a2.4,2.4,0,0,0,0-4.8c-4.517.327-8.79,3.543-9.721,8.1a10.615,10.615,0,0,0,4.352,10.991A11.01,11.01,0,0,0,280.483,54c3.787-2.229,5.3-6.555,4.655-10.764a10.105,10.105,0,0,0-2.992-5.786,10.457,10.457,0,0,0-7.617-2.664,2.4,2.4,0,1,0,0,4.8Z"/><path class="b" d="M303.587,49.338c0-2.733.115-5.491,0-8.221-.1-2.4-1.816-3.48-4.036-3.48h-4.284l2.314,1.762a25.453,25.453,0,0,0-2.506-6.335l-.375,2.908,2.532-2.532c.854-.854,1.757-1.666,1.859-2.947.2-2.455-2.663-4.385-4.239-5.961-1.32-1.32-2.919-3.6-4.958-3.6a4.46,4.46,0,0,0-3.108,1.748l-2.634,2.635,2.908-.376a24.167,24.167,0,0,0-6.389-2.466l1.762,2.315c0-1.573.05-3.153,0-4.725a3.42,3.42,0,0,0-2.086-3.329,5.776,5.776,0,0,0-2.13-.252h-5.931c-.511,0-1.033-.032-1.544,0a3.4,3.4,0,0,0-3.3,3.308c-.1,1.678,0,3.391,0,5.074l1.762-2.315a26.319,26.319,0,0,0-6.345,2.435l2.908.375q-1.188-1.189-2.378-2.378c-.9-.9-1.741-1.895-3.088-2-2.213-.181-3.725,2-5.138,3.414l-2.319,2.319a5.968,5.968,0,0,0-2.017,2.825c-.335,1.551.555,2.643,1.582,3.669l2.676,2.676-.376-2.908a24.3,24.3,0,0,0-2.465,6.426l2.314-1.762c-1.575,0-3.161-.058-4.735,0a3.434,3.434,0,0,0-3.4,2.373,7.177,7.177,0,0,0-.131,1.925v5.85c0,.512-.032,1.036,0,1.548a3.4,3.4,0,0,0,3.33,3.3c1.654.095,3.339,0,5,0L252.3,50.868a26.224,26.224,0,0,0,2.433,6.4l.375-2.909-2.551,2.552c-.9.9-1.819,1.8-1.819,3.178,0,2.049,2.277,3.638,3.6,4.958l2.324,2.325c.87.869,1.695,1.807,3,1.914,2.476.2,4.4-2.672,5.977-4.251l-2.909.375a23.773,23.773,0,0,0,6.476,2.433l-1.762-2.314c0,1.585-.072,3.187,0,4.77a3.4,3.4,0,0,0,2.514,3.374,7.6,7.6,0,0,0,1.87.109h5.956c.45,0,.911.028,1.36,0a3.4,3.4,0,0,0,3.293-3.352c.089-1.707,0-3.44,0-5.149L280.671,67.6a27.259,27.259,0,0,0,6.047-2.613l-2.908-.375q1.251,1.249,2.5,2.5a6.266,6.266,0,0,0,2.947,2.135c1.57.336,2.64-.556,3.667-1.583l2.613-2.613c1.441-1.441,3.739-3.02,3.555-5.277-.109-1.335-1.1-2.178-1.983-3.067l-2.544-2.544.375,2.909a23.524,23.524,0,0,0,2.6-6.2l-2.314,1.762c2.571,0,7.7.912,8.275-2.654a2.475,2.475,0,0,0-1.676-2.953,2.42,2.42,0,0,0-2.953,1.677c.347-2.147,2.055-.728,1.19-.87a3.968,3.968,0,0,0-.607,0h-4.229a2.444,2.444,0,0,0-2.314,1.762,18.883,18.883,0,0,1-2.115,5.055,2.443,2.443,0,0,0,.375,2.909L293,59.379l.86.86.411.411q.429.495.155.079V59.453q.346-.437.1-.178l-.283.283-.659.659-1.438,1.438-1.593,1.593-.876.876c-.144.144-.829.575-.417.493h1.276c.44.084-.224-.3-.388-.461L289.1,63.114l-1.9-1.9a2.449,2.449,0,0,0-2.908-.376,21.829,21.829,0,0,1-4.9,2.129,2.453,2.453,0,0,0-1.762,2.315,42.5,42.5,0,0,0,0,4.984c.122,1.008,2.209-1.128,1.36-1.283a5.005,5.005,0,0,0-.857,0h-6.043c-.34,0-.7-.032-1.038,0-1.2.112,1.483.389,1.185,1.444a11.154,11.154,0,0,0,0-2.665V65.531a2.433,2.433,0,0,0-1.762-2.314,19.333,19.333,0,0,1-5.329-1.949,2.457,2.457,0,0,0-2.908.375l-1.735,1.734-.76.761c-.158.158-.836.561-.407.479h1.276c.2.121.2.1.011-.065l-.428-.428-.876-.876-1.593-1.593-1.438-1.438-.659-.659-.194-.194q-.369-.4.014.089v1.276q-.195.314.058.018l.44-.44.78-.781,1.771-1.77a2.462,2.462,0,0,0,.376-2.909,21.249,21.249,0,0,1-1.949-5.255,2.434,2.434,0,0,0-2.314-1.762,29.716,29.716,0,0,0-4.9,0c-.828.146,1.238,2.271,1.375,1.321a6.035,6.035,0,0,0,0-.818V42.2a5.988,5.988,0,0,0,0-.947c-.19-1.123-1.01,1.415-1.444,1.185a3.358,3.358,0,0,0,1.011,0h3.9a2.433,2.433,0,0,0,2.314-1.762,19.706,19.706,0,0,1,1.982-5.279,2.458,2.458,0,0,0-.375-2.909l-1.753-1.752-.775-.776c-.154-.154-.576-.843-.5-.423v1.276c-.121.2-.1.2.065.011l.428-.427.876-.876,1.593-1.594,1.438-1.438.659-.659.194-.194c.265-.246.236-.242-.088.015h-1.276c-.22-.146-.235-.136-.044.032l.41.41.874.874,1.789,1.789a2.46,2.46,0,0,0,2.909.375,21.279,21.279,0,0,1,5.2-1.95,2.434,2.434,0,0,0,1.762-2.314V22.689a9.8,9.8,0,0,0,0-2.779c-.249-.67-1.1,1.654-1.5,1.374.044.03.167-.017.217,0a3.6,3.6,0,0,0,.951,0h6.053a6.039,6.039,0,0,0,.951,0c1-.168-1.152-2.081-1.281-1.376a16.151,16.151,0,0,0,0,2.738V24.79A2.436,2.436,0,0,0,279.4,27.1a19.539,19.539,0,0,1,5.243,1.982,2.456,2.456,0,0,0,2.908-.375l1.773-1.774.861-.86c.173-.173.814-.519.352-.429h-1.276c-.383-.075-.251-.175.105.181l.659.659,1.438,1.438,1.593,1.594.876.876c.144.143.575.829.493.416V29.536q.222-.327-.031-.042l-.409.41-.873.873-1.8,1.8a2.455,2.455,0,0,0-.376,2.908,20.539,20.539,0,0,1,2.022,5.189,2.436,2.436,0,0,0,2.315,1.762h3.577a6.2,6.2,0,0,0,1.434,0c-3.575.969-1.3-2.383-1.491-1.28a4.269,4.269,0,0,0,0,.7v7.484C298.787,52.426,303.587,52.431,303.587,49.338Z"/><path class="d" d="M9.8,92.494H125.35a7.338,7.338,0,0,0,7.343-7.342c-.005-22.431-.006-52.886-.006-75.317a7.336,7.336,0,0,0-7.341-7.341H9.791a7.341,7.341,0,0,0-7.34,7.347V85.147A7.368,7.368,0,0,0,9.8,92.494Z"/><path class="b" d="M9.8,94.894H123.242a14.77,14.77,0,0,0,5.681-.694,9.788,9.788,0,0,0,4.948-4.318,13.044,13.044,0,0,0,1.222-6.586l0-14.662q0-15.646,0-31.294,0-7.644,0-15.29V14.731a36.95,36.95,0,0,0-.21-6.891A9.854,9.854,0,0,0,125.263.094c-2.373-.037-4.749,0-7.122,0H12.093A22.609,22.609,0,0,0,7.8.306,9.536,9.536,0,0,0,2.365,3.55,10.3,10.3,0,0,0,.051,10.23c-.027,7.463,0,14.927,0,22.391V80.547A32.923,32.923,0,0,0,.3,87.3a9.884,9.884,0,0,0,9.5,7.592c3.09.073,3.089-4.728,0-4.8A5.017,5.017,0,0,1,4.851,85.1c-.011-.594,0-1.189,0-1.783V13.023C4.851,10.7,4.5,8.145,6.3,6.345c1.925-1.93,4.845-1.45,7.339-1.45h110.68a6.121,6.121,0,0,1,4.155,1.088,5.116,5.116,0,0,1,1.815,4.037c.036,4.621,0,9.243,0,13.863q0,29.613.006,59.226c0,1.841.144,3.65-1.088,5.17a5.143,5.143,0,0,1-4.1,1.816c-3.165.024-6.331,0-9.5,0H9.8C6.709,90.094,6.7,94.894,9.8,94.894Z"/><path class="b" d="M3.452,24.34h128.24c3.089,0,3.094-4.8,0-4.8H3.452c-3.089,0-3.094,4.8,0,4.8Z"/><path class="e" d="M14.657,7.844a4.209,4.209,0,0,0-4.3,4.26,4.025,4.025,0,0,0,4.3,4.34,4,4,0,0,0,4.3-4.34A4.206,4.206,0,0,0,14.657,7.844Z"/><path class="b" d="M44.374,39.464,27.875,55.4a2.429,2.429,0,0,0,0,3.394l16.5,15.936C46.6,76.877,50,73.487,47.768,71.336L31.269,55.4v3.394l16.5-15.936c2.226-2.15-1.17-5.542-3.394-3.394Z"/><path class="b" d="M87.376,42.858l16.5,15.936V55.4l-16.5,15.936c-2.226,2.15,1.17,5.542,3.394,3.394l16.5-15.936a2.429,2.429,0,0,0,0-3.394L90.77,39.464c-2.223-2.147-5.621,1.243-3.394,3.394Z"/><path class="e" d="M73.193,39.95,57.806,71.821a2.464,2.464,0,0,0,.861,3.284,2.422,2.422,0,0,0,3.284-.861L77.338,42.372a2.463,2.463,0,0,0-.861-3.283,2.421,2.421,0,0,0-3.284.861Z"/></svg>